<svg data-name="图层_8" xmlns="http://www.w3.org/2000/svg" viewBox="0 0 840 560">
  <path style="fill:#d8e8f2" d="m689.8 284.8-28.9-124.5-90.8 82.8-124.6-10.3 44.7 118.5L445 469.9l122.2-9.2 92.9 84.1 28.2-124L793.9 353z"/>
  <path style="fill:#7bd" d="M0 104.7h840v58H0z"/>
  <path d="m312.7 136 5.4-18h5v33.1h-4.8V128l.3 1.5-4.6 15.8h-2.7l-4.6-15.3.4-1.9v23.1h-4.9v-33.1h5.2l5.2 18Zm14.2 15.1V118h5.4v33.1zm2.4-27.6V118h11.6v5.5zm0 13.9v-5.5h10.6v5.5zm0 13.7v-5.5h11.6v5.5zm24.9-15.1 5.4-18h5v33.1h-4.8V128l.3 1.5-4.6 15.8h-2.7l-4.6-15.3.4-1.9v23.1h-4.9v-33.1h5.2l5.2 18Zm14.2 15.1V118h5.4v33.1zm3.1 0v-5.3h4.7c.7 0 1.2-.2 1.6-.6s.6-.9.6-1.6v-4.4c0-.8-.2-1.5-.6-1.9s-.9-.7-1.6-.7h-4.6v-5.2h4.5q.9 0 1.5-.6c.4-.4.5-1 .5-1.8v-3.5c0-.7-.2-1.2-.5-1.6-.4-.4-.8-.6-1.5-.6h-4.5V118h5.1c2.1 0 3.8.6 5 1.8s1.8 2.9 1.8 5v3.5c0 1.5-.4 2.7-1.2 3.7s-1.9 1.6-3.4 1.8c1.6.2 2.8.8 3.7 1.8s1.3 2.3 1.3 3.9v4.5c0 2.2-.6 3.9-1.7 5.1s-2.8 1.8-4.9 1.8h-5.6Zm15.6 0V118h5.4v33.1zm2.4-27.6V118h11.6v5.5zm0 13.9v-5.5h10.6v5.5zm0 13.7v-5.5h11.6v5.5zm14.4 0V118h5.3v33.1zm2.4-14v-5.4h5.7c.7 0 1.3-.2 1.7-.6s.6-.9.6-1.6v-3.7c0-.8-.2-1.3-.6-1.8-.4-.4-.9-.6-1.7-.6h-5.7V118h5.4c1.7 0 3.2.3 4.4.9s2.1 1.4 2.8 2.6c.6 1.1 1 2.5 1 4.1v3.9c0 1.6-.3 3-1 4.2-.6 1.2-1.6 2-2.8 2.6s-2.7.9-4.4.9h-5.4Zm8.6 14-4.2-15 4.9-1 5 16.1h-5.8Zm7.6-19.2v-13.8h5.4v8.1zm15.2 19.5c-1.7 0-3.1-.3-4.3-1-1.2-.6-2.1-1.6-2.7-2.8s-.9-2.7-.9-4.4v-1.8h5.4v1.7c0 .8.2 1.5.7 2 .4.5 1.1.7 1.9.7s1.4-.2 1.8-.7.6-1.1.6-1.9v-2.9c0-.7-.2-1.3-.6-1.7-.4-.5-.9-.9-1.5-1.3s-1.3-.7-2.1-1.1c-.7-.4-1.4-.8-2.2-1.3s-1.4-1-2-1.7q-.9-1.05-1.5-2.4c-.6-1.35-.6-2.1-.6-3.5v-1.7c0-2.5.7-4.5 2.1-5.9s3.3-2.1 5.8-2.1 4.3.7 5.7 2.1 2 3.4 2 6v1.9h-5.4v-1.8c0-.8-.2-1.5-.6-2s-1-.7-1.7-.7-1.4.2-1.8.6q-.6.6-.6 1.8v2.2c0 .8.2 1.4.7 1.9.4.5 1 .9 1.7 1.3s1.4.8 2.2 1.2c.7.4 1.4.8 2 1.2q1.05.6 1.8 1.5c.6.6 1 1.4 1.3 2.3s.5 2 .5 3.3v2.8q0 3.9-2.1 6c-1.4 1.4-3.3 2.2-5.8 2.2Zm28.2 0c-1.6 0-3-.3-4.1-1s-2-1.6-2.6-2.9-.9-2.8-.9-4.6V126c0-1.8.3-3.3.9-4.6s1.5-2.2 2.6-2.9 2.5-1 4.1-1 3 .3 4.1 1 2 1.6 2.6 2.9.9 2.8.9 4.6v2.7H468V126c0-.6 0-1-.2-1.4s-.4-.7-.7-.9-.7-.3-1.2-.3-1.2.2-1.5.7-.6 1.1-.6 2V143c0 .8.2 1.5.6 2s.9.7 1.5.7 1.2-.2 1.6-.7.5-1.1.5-2v-2.7h5.5v2.7c0 1.8-.3 3.3-.9 4.6s-1.5 2.2-2.6 2.9-2.5 1-4.1 1Zm9.5-.3 7.5-33.1h3.8l7.5 33.1h-5.3l-4.1-21.7-4.1 21.7zm5.2-5.1v-5.3h8.6v5.3zm16 5.1V118h5.3v33.1zm2.5-14v-5.4h5.7c.7 0 1.3-.2 1.7-.6s.6-.9.6-1.6v-3.7c0-.8-.2-1.3-.6-1.8-.4-.4-.9-.6-1.7-.6h-5.7V118h5.4c1.7 0 3.2.3 4.4.9s2.1 1.4 2.8 2.6c.6 1.1 1 2.5 1 4.1v3.9c0 1.6-.3 3-1 4.2-.6 1.2-1.6 2-2.8 2.6s-2.7.9-4.4.9h-5.4Zm8.5 14-4.2-15 4.9-1 5 16.1h-5.8Zm9.1 0V118h5.4v33.1zm3.6 0v-5.4h4c.7 0 1.3-.2 1.7-.7s.6-1.1.6-1.9v-17c0-.8-.2-1.5-.6-2s-.9-.7-1.7-.7h-4V118h4.6c2.3 0 4 .6 5.3 1.9s1.9 3.1 1.9 5.5v18.2c0 1.6-.3 2.9-.8 4-.6 1.1-1.4 2-2.5 2.5q-1.65.9-3.9.9h-4.6Z" style="fill:#fff"/>
  <path d="M78.8 52.5h9.8c3.1 0 5.4.3 7 .8s2.9 1.5 3.9 3.1c1 1.5 1.5 4 1.5 7.4s-.3 3.9-1 4.8-2.1 1.6-4.1 2.1c2.3.5 3.8 1.4 4.6 2.7s1.2 3.2 1.2 5.7v3.7c0 2.7-.3 4.6-.9 5.9s-1.5 2.2-2.8 2.6-3.9.7-7.8.7H78.9V52.5Zm9.8 6.7V68h1c1 0 1.6-.2 1.8-.7.3-.5.4-1.9.4-4.3s-.1-2.1-.3-2.6-.5-.8-.8-.9-1-.2-2-.2Zm0 14.9v11c1.4 0 2.3-.3 2.6-.7s.6-1.4.6-3v-3.7c0-1.7-.2-2.7-.5-3.1q-.45-.6-2.7-.6Zm24.7-2h-8.8v-2.2c0-2.5.3-4.4.8-5.8q.9-2.1 3.3-3.6c1.7-1 3.8-1.6 6.5-1.6s5.6.6 7.2 1.8 2.6 2.6 2.9 4.3.5 5.2.5 10.6v16.2h-9.1v-2.9c-.6 1.2-1.3 2-2.2 2.6s-2 .9-3.2.9-3.2-.5-4.5-1.5-2.1-3.1-2.1-6.4v-2.7c0-2.4.4-4.1 1.1-4.9.7-.9 2.5-1.9 5.4-3.1 3.1-1.3 4.7-2.1 5-2.6s.3-1.3.3-2.7-.1-2.8-.4-3.3c-.2-.5-.6-.8-1.2-.8s-1 .2-1.2.6-.2 1.5-.2 3.4v3.4Zm3 4.4c-1.5 1.2-2.4 2.1-2.6 2.9s-.4 1.9-.4 3.4.1 2.8.3 3.2c.2.5.6.7 1.2.7s1-.2 1.2-.6q.3-.6.3-3v-6.7Zm22.2-16.9-.2 3c.7-1.2 1.5-2.1 2.5-2.7s2.1-.9 3.4-.9 2.9.4 4 1.2c1 .8 1.7 1.8 2 3s.4 3.2.4 6.1V92h-9.4V69.6c0-2.2 0-3.6-.2-4.1-.1-.5-.5-.7-1.2-.7s-1.1.3-1.3.8q-.3.9-.3 4.5V92h-9.4V59.6h9.6Zm38.1 7.4h-9.8v-3.6c0-2.3 0-3.7-.3-4.2-.2-.6-.6-.9-1.3-.9s-1 .2-1.2.7-.3 1.7-.3 3.8v18.9c0 1.8.1 2.9.3 3.5s.7.8 1.3.8 1.2-.3 1.5-1c.3-.6.4-1.9.4-3.7v-4.7h-2v-6h11.5v21.2h-6.2l-.9-2.8c-.7 1.2-1.5 2.1-2.5 2.7s-2.2.9-3.6.9-3.2-.4-4.6-1.3-2.5-1.9-3.3-3.1c-.7-1.2-1.2-2.5-1.4-3.9s-.3-3.4-.3-6.1V66.5c0-3.8.2-6.5.6-8.2s1.5-3.3 3.3-4.7 4.2-2.1 7.1-2.1 5.3.6 7.1 1.9c1.9 1.2 3.1 2.7 3.7 4.4s.9 4.2.9 7.4v1.7Zm12.2-14.5h7.3c4.7 0 7.9.2 9.6.7s2.9 1.2 3.8 2.2 1.4 2.2 1.6 3.5q.3 1.95.3 7.5v13.8c0 3.5-.2 5.9-.5 7.1s-.9 2.1-1.7 2.8-1.8 1.1-2.9 1.4-2.9.4-5.3.4h-12.4V52.4Zm9.8 6.7v26c1.4 0 2.3-.3 2.6-.9s.5-2.2.5-4.8V64.2c0-1.8 0-2.9-.2-3.4-.1-.5-.4-.9-.7-1.1-.4-.2-1.1-.4-2.2-.4Zm25.7.4-.4 4.3c1.4-3 3.3-4.7 5.9-4.8v11.4c-1.7 0-3 .2-3.8.7s-1.3 1.2-1.5 2q-.3 1.35-.3 6V92h-9.4V59.6h9.4Zm28.9 16.7H241v7c0 1.5.1 2.4.3 2.8q.3.6 1.2.6c.9 0 1.2-.3 1.4-.8.2-.6.4-1.6.4-3.3v-4.3h8.9v2.4c0 2-.1 3.5-.4 4.6-.2 1.1-.8 2.2-1.7 3.4s-2 2.1-3.4 2.7q-2.1.9-5.1.9c-3 0-3.7-.3-5.3-.9-1.5-.6-2.7-1.4-3.6-2.5-.8-1-1.4-2.2-1.8-3.5-.3-1.3-.5-3.1-.5-5.5v-9.4c0-2.8.4-5.1 1.1-6.7s1.9-2.9 3.6-3.8 3.6-1.3 5.7-1.3 4.8.5 6.5 1.6 2.9 2.4 3.6 4.2c.7 1.7 1 4.2 1 7.3v4.3Zm-9.4-5.2v-2.4c0-1.7 0-2.8-.3-3.2-.2-.5-.5-.7-1-.7s-1.1.2-1.2.6c-.2.4-.2 1.5-.2 3.4v2.4h2.7Zm20.9 1h-8.8v-2.2c0-2.5.3-4.4.8-5.8q.9-2.1 3.3-3.6c1.7-1 3.8-1.6 6.5-1.6s5.6.6 7.2 1.8 2.6 2.6 2.9 4.3.5 5.2.5 10.6v16.2H268v-2.9c-.6 1.2-1.3 2-2.2 2.6s-2 .9-3.2.9-3.2-.5-4.5-1.5-2.1-3.1-2.1-6.4v-2.7c0-2.4.4-4.1 1.1-4.9.7-.9 2.5-1.9 5.4-3.1 3.1-1.3 4.7-2.1 5-2.6s.3-1.3.3-2.7-.1-2.8-.4-3.3c-.2-.5-.6-.8-1.2-.8s-1 .2-1.2.6-.2 1.5-.2 3.4v3.4Zm3 4.4c-1.5 1.2-2.4 2.1-2.6 2.9s-.4 1.9-.4 3.4.1 2.8.3 3.2c.2.5.6.7 1.2.7s1-.2 1.2-.6q.3-.6.3-3v-6.7Zm21.9-16.9-.2 3.1c.7-1.2 1.6-2.1 2.6-2.7s2.2-.9 3.4-.9c2.5 0 4.5 1.2 5.9 3.7q1.2-1.8 2.7-2.7t3.3-.9c1.8 0 2.9.4 4 1.2 1 .8 1.7 1.8 2 3s.4 3.1.4 5.7v23h-9.1V71c0-2.8 0-4.5-.3-5.1-.2-.7-.6-1-1.2-1s-1.1.3-1.3 1-.3 2.4-.3 5.1v21.1h-9.1V71.5c0-3.2 0-5.1-.2-5.7-.1-.6-.6-1-1.2-1s-.8.2-1.1.5-.5.7-.5 1.2V92h-9.1V59.6zm37.8-7.1-1.5 29.7h-7.3l-1.5-29.7zm-.7 31.5v7.9h-8.8V84zm34.4-17h-9.8v-3.6c0-2.3 0-3.7-.3-4.2-.2-.6-.6-.9-1.3-.9s-1 .2-1.2.7-.3 1.7-.3 3.8v18.9c0 1.8.1 2.9.3 3.5s.7.8 1.3.8 1.2-.3 1.5-1c.3-.6.4-1.9.4-3.7v-4.7h-2v-6h11.5v21.2H355l-.9-2.8c-.7 1.2-1.5 2.1-2.5 2.7s-2.2.9-3.6.9-3.2-.4-4.6-1.3-2.5-1.9-3.3-3.1c-.7-1.2-1.2-2.5-1.4-3.9s-.3-3.4-.3-6.1V66.5c0-3.8.2-6.5.6-8.2s1.5-3.3 3.3-4.7 4.2-2.1 7.1-2.1 5.3.6 7.1 1.9c1.9 1.2 3.1 2.7 3.7 4.4s.9 4.2.9 7.4v1.7Zm13.2-14.5v5.1h-9.7v-5.1zm0 7.1V92h-9.7V59.6zm12.8 0-.4 4.3c1.4-3 3.3-4.7 5.9-4.8v11.4c-1.7 0-3 .2-3.8.7s-1.3 1.2-1.5 2q-.3 1.35-.3 6V92h-9.4V59.6h9.4Zm17.4-7.1V92h-9.7V52.5zM427 69.9h-8.3v-1.8c0-1.5 0-2.4-.2-2.8q-.3-.6-1.2-.6c-.9 0-.9.2-1.2.5-.3.4-.4.9-.4 1.6s0 1.7.2 2.2q.15.75 1.2 1.5c.7.6 2 1.4 4.1 2.4q4.05 2.1 5.4 3.9c.9 1.2 1.3 3 1.3 5.4s-.3 4.6-1 6c-.7 1.3-1.7 2.4-3.3 3.1-1.5.7-3.4 1.1-5.5 1.1s-4.4-.4-6.1-1.2-2.9-1.8-3.5-3.2c-.6-1.3-1-3.3-1-6v-1.6h8.3v2c0 1.7.1 2.9.3 3.4s.6.8 1.2.8 1.1-.2 1.4-.5.4-1.1.4-2.2-.2-2.5-.5-2.9c-.4-.4-2.2-1.5-5.5-3.5-2.8-1.6-4.4-3.1-5.1-4.4-.6-1.3-.9-2.9-.9-4.7 0-2.6.3-4.5 1-5.7s1.8-2.2 3.3-2.8c1.6-.7 3.4-1 5.4-1s3.8.3 5.2.8 2.5 1.3 3.3 2.2 1.2 1.7 1.4 2.5.2 2 .2 3.6v1.9Zm12-17.4h9.8c3.1 0 5.4.3 7 .8s2.9 1.5 3.9 3.1c1 1.5 1.5 4 1.5 7.4s-.3 3.9-1 4.8-2.1 1.6-4.1 2.1c2.3.5 3.8 1.4 4.6 2.7.8 1.2 1.2 3.2 1.2 5.7v3.7c0 2.7-.3 4.6-.9 5.9s-1.5 2.2-2.8 2.6c-1.3.5-3.9.7-7.8.7h-11.3V52.5Zm9.8 6.7V68h1c1 0 1.6-.2 1.8-.7.3-.5.4-1.9.4-4.3s-.1-2.1-.3-2.6-.5-.8-.8-.9-1-.2-2-.2Zm0 14.9v11c1.4 0 2.3-.3 2.6-.7q.6-.6.6-3v-3.7c0-1.7-.2-2.7-.5-3.1q-.45-.6-2.7-.6Zm24.6-2h-8.8v-2.2c0-2.5.3-4.4.8-5.8q.9-2.1 3.3-3.6c1.7-1 3.8-1.6 6.5-1.6s5.6.6 7.2 1.8 2.6 2.6 2.9 4.3.5 5.2.5 10.6v16.2h-9.1v-2.9c-.6 1.2-1.3 2-2.2 2.6s-2 .9-3.2.9-3.2-.5-4.5-1.5c-1.4-1-2.1-3.1-2.1-6.4v-2.7c0-2.4.4-4.1 1.1-4.9.7-.9 2.5-1.9 5.4-3.1 3.1-1.3 4.7-2.1 5-2.6s.3-1.3.3-2.7-.1-2.8-.4-3.3c-.2-.5-.6-.8-1.2-.8s-1 .2-1.2.6-.2 1.5-.2 3.4v3.4Zm3 4.4c-1.5 1.2-2.4 2.1-2.6 2.9s-.4 1.9-.4 3.4.1 2.8.3 3.2c.2.5.6.7 1.2.7s1-.2 1.2-.6q.3-.6.3-3v-6.7Zm22.2-16.9-.2 3c.7-1.2 1.5-2.1 2.5-2.7s2.1-.9 3.4-.9 2.9.4 4 1.2 1.7 1.8 2 3 .4 3.2.4 6.1V92h-9.4V69.6c0-2.2 0-3.6-.2-4.1-.1-.5-.5-.7-1.2-.7s-1.1.3-1.3.8-.3 2.1-.3 4.5V92h-9.4V59.6h9.6Zm36.8-7.1V92H526v-2.3c-.9 1-1.8 1.7-2.8 2.2s-2 .7-3.1.7-2.7-.4-3.8-1.2-1.8-1.7-2.1-2.8-.5-2.8-.5-5.2V68.3c0-2.5.2-4.2.5-5.3s1-2 2.1-2.7q1.65-1.2 3.9-1.2c2.25 0 2.2.2 3.2.7s1.9 1.1 2.6 2v-9.2h9.4ZM526 67.7c0-1.2 0-2-.3-2.4q-.3-.6-1.2-.6c-.9 0-.9.2-1.1.5-.2.4-.3 1.2-.3 2.5v15.8c0 1.3 0 2.2.3 2.6.2.4.5.6 1.1.6s1-.2 1.2-.7.3-1.6.3-3.4v-15Zm21.4-15.2h9.9c2.7 0 4.7.2 6.2.7 1.4.4 2.5 1.1 3.2 1.9s1.2 1.8 1.5 3 .4 3 .4 5.5V67c0 2.5-.2 4.4-.7 5.5-.5 1.2-1.4 2-2.7 2.7-1.3.6-3.1.9-5.2.9h-2.6V92h-9.8V52.5Zm9.8 6.7v10h.7c.9 0 1.5-.2 1.9-.7.3-.5.5-1.4.5-2.9v-3.2c0-1.3-.2-2.2-.6-2.6s-1.2-.6-2.5-.6m22.3 12.9h-8.8v-2.2c0-2.5.3-4.4.8-5.8q.9-2.1 3.3-3.6c1.7-1 3.8-1.6 6.5-1.6s5.6.6 7.2 1.8 2.6 2.6 2.9 4.3.5 5.2.5 10.6v16.2h-9.1v-2.9c-.6 1.2-1.3 2-2.2 2.6s-2 .9-3.2.9-3.2-.5-4.5-1.5c-1.4-1-2.1-3.1-2.1-6.4v-2.7c0-2.4.4-4.1 1.1-4.9.7-.9 2.5-1.9 5.4-3.1 3.1-1.3 4.7-2.1 5-2.6s.3-1.3.3-2.7-.1-2.8-.4-3.3c-.2-.5-.6-.8-1.2-.8s-1 .2-1.2.6-.2 1.5-.2 3.4v3.4Zm3 4.4c-1.5 1.2-2.4 2.1-2.6 2.9s-.4 1.9-.4 3.4.1 2.8.3 3.2c.2.5.6.7 1.2.7s1-.2 1.2-.6q.3-.6.3-3v-6.7Zm22-16.9-.4 4.3c1.4-3 3.3-4.7 5.9-4.8v11.4c-1.7 0-3 .2-3.8.7s-1.3 1.2-1.5 2q-.3 1.35-.3 6V92H595V59.6h9.4Zm17.6-4.3v5.1h2.5v5.1h-2.5v17.3q0 3.15.3 3.6c.2.2 1.1.4 2.6.4V92h-3.8c-2.1 0-3.7 0-4.6-.3-.9-.2-1.7-.6-2.4-1.3s-1.1-1.4-1.3-2.3-.3-2.9-.3-6.1V65.6h-2v-5.1h2v-5.1h9.4Zm24.3 4.3L643.7 83c-.4 3.7-.8 6.2-1.1 7.6-.3 1.3-.8 2.5-1.4 3.3-.7.9-1.6 1.5-2.8 1.9q-1.8.6-5.7.6H627v-5.2c1.5 0 2.4 0 2.8-.2s.6-.5.6-1-.2-1.4-.6-3.4l-5.1-27.1h8.5l3.1 21.8 1.5-21.8h8.5Zm12-7.1-1.5 29.7h-7.3l-1.5-29.7zm-.8 31.5v7.9h-8.8V84z" style="fill:#e6e4e5"/>
</svg>
