<?xml version="1.0" encoding="UTF-8"?>
<svg data-name="图层_1" xmlns="http://www.w3.org/2000/svg" viewBox="0 0 795 328">
  <path d="M132 241.5c27.2-7.1 41.1-32.5 41.1-58.9 0-72.3-59.7-72.6-97.2-72.6H0v217.9h54v-73.3l17.6-1.7 62 75h65.5l-67.2-86.4Zm-78-33V156h17.6c24.1 0 48.5 0 48.5 26.7 0 25.9-24.4 25.9-48.5 25.9H54Zm680.3-87.8c20.8 9.7 36.2 27.9 38.7 33.7l-43.1 33.2c-44.6-62.2-116.4-3.5-92.1 60 17.9 47 79.9 50.4 92.7 3h-42.7v-43H795c0 69.5-29 120.4-103.8 120.3-109.6 0-153-116.2-79.9-188 33.9-33.3 84.1-37.3 123.1-19.2ZM382 110l164.3 217.9h-64.4L383.2 200l-1.1 127.9h-55.9l-.8-217.9zM275.2 327.9 221.7 264l.1-79.2 52.3.8zm254-217.9v98l-55.4-69.1V110z"/>
  <circle cx="248" cy="123.4" r="30"/>
  <path d="M384.7 0v19.7h-14.4V0h-20.1v58.9h20.1V39.4h14.4v19.5h20V0zm-190 0-9 32.9L176.8 0h-22.4l21.3 58.9h20L217 0zm108.4 0v16.8h-18.5v7.3h18.5v12.8h-18.5v7.5h18.5v14.5h-38.9V0zM0 0l21.9.1v39.2h18L39.7 59H0zm107.3 0v58.9H87V0zM795 0v16.8h-18.5v7.3H795v12.7h-18.5v7.5H795v14.6h-39V0zM481.3 0c-16.3 0-29.5 13.2-29.5 29.5S465 59 481.3 59s29.5-13.2 29.5-29.5S497.6 0 481.3 0m0 42.5c-7.2 0-13-5.8-13-13s5.8-13 13-13 13 5.8 13 13-5.8 13-13 13m130.4-1.7V0h-22v37.3c0 5.6-9.8 5.6-9.8 0V0h-22v40.8c0 15.9 19.2 18.1 28.7 18.1s25.1-2.2 25.1-18.1m92.7-12c-3.6-3.6-11.6-7.7-19.3-7-4.9.4-4.8-3.3-1.9-4.1 6.1-1.7 13.7.4 17.5 3.8l8.2-14.3c-22.4-13.8-40.5-6.1-47.4 7.7-3.2 6.3-.6 12.2 1.8 15.2s11.5 7.7 19.2 7c4.9-.4 4.8 3.3 1.9 4.1-6.1 1.7-13.7-.4-17.5-3.8l-8.2 14.3c22.4 13.8 40.5 6.1 47.4-7.7 3.2-6.3 2-11.4-1.8-15.2Z"/>
</svg>